<svg xmlns="http://www.w3.org/2000/svg" viewBox="0 0 280 280" role="img" aria-label="StarkGemacht favicon">
  <rect width="280" height="280" rx="56" fill="#3e5622" />
  <path
    d="M49.1 219.8c-3.7-7.9-1.5-13.9 6.9-18.7 9-5.1 19.2-7.9 29.9-9.5 4.3-.6 8.5-1.3 12.9-1.4.8 0 1.6-.3 2.4-.5 0-1-.8-1.4-1.4-1.9-32.3-25.1-58.4-53.9-77.1-86.8C15.2 87.8 8.3 74.4 3.6 60.4 0 49.1-1.4 37.7 1.9 26.1 5.3 13.9 19.9 2.3 34.6.4c11.6-1.5 21.7 1.7 30.9 7.1 9.9 5.8 17.2 13.4 23.4 21.8 12.7 17.1 21.4 35.6 28.7 54.5l.6 1.5c.2.3.4.7.7 1.2 1.2-.7 1.6-1.7 2-2.6 6.6-13.5 14.8-26.3 25.5-38 9.6-10.5 21.2-19.1 36.4-24 5.3-1.7 10.7-2.9 16.5-2.3 7.8.8 13.8 4.1 17.9 9.5 5.9 7.7 8.7 16.2 9.3 25.2 1.2 17.5-4.7 33.8-12.8 49.8-12 23.6-27.9 45.6-45.5 66.8-1.8 2.1-3.4 4.2-5.1 6.4-.3.4-.6.9-.5 1.6 2.2-2.2 4.5-4.4 6.6-6.8 8.1-8.6 16.1-17.2 26-24.6 7.6-5.6 15.9-10.2 26.4-11.7 5.7-.8 11.3-.5 16.5 1.6 9 3.5 12 12.6 6.7 19.9-2 2.7-4.7 4.9-7.4 7.2.5 1 1.7 1.1 2.7 1.4 5.9 1.8 11.5 4.1 16.1 7.7 10.2 7.9 9.2 18.9-2.1 25.8-8.4 5.1-18.1 6.6-28.3 6.2-14.2-.6-28.2-3.1-42.3-4.4-2.6-.2-5.1-.5-7.9-.4 2.3.9 4.7 1.7 7 2.7 13.5 5.5 27.2 10.8 39.3 18.4 7.8 4.9 13.8 10.9 15.9 19 3.3 12.2-8 23.9-23.5 24.5-9.4.4-17.6-1.9-25.4-5.9-1.7-.9-3.4-1.8-5.3-2.9-1.8 1.9-2.4 4.1-2.8 6.2-.7 3-1.2 6-2.7 8.9-4.7 9.1-17.8 11.3-27.3 4.5-4.7-3.4-6.9-7.8-8.3-12.6-1.2-4.2-1.2-8.6-1.3-12.9-.2-10.2-1.5-20.3-1.8-30.5 0-1.1 0-2.3-.3-3.5-2.6 5.9-5.2 11.7-8.4 17.4-5.3 9.4-11.8 18.2-19.8 26.3-3.3 3.4-7.3 6.2-12.6 7.4-6.3 1.4-13.5-1.1-17.6-5.8-5.7-6.5-6.1-13.4-2.7-20.6 1.4-2.9 3.2-5.7 5-8.5.4-.7 1.1-1.4.8-2.5l-9.3.9c-11.5 1-21.4-3.7-25.7-11.5m56.6-40c8.4 7.1 17.3 13.6 26.5 20.3 4.9-5.6 9.4-11.1 12.9-16.9 4.6-7.4 8.6-15.1 13.1-22.6 4.8-8 10-15.7 14.6-23.8 4.9-8.6 9.8-17.1 15.3-25.5 7.1-10.9 13.6-22 17.4-33.9 3.1-9.9 4.5-19.9 2-30-.5-1.9-1-3.8-2-5.6-3.6-7.1-10.2-9-18.8-5.4-7.9 3.3-14.1 8.2-19.4 13.8-13.3 13.9-22.8 29.5-30.8 45.7-3.1 6.3-5.8 12.9-9.6 19-1.9 3.1-5 4.7-9.1 4.5-4.4-.2-7.1-2.4-8.4-5.9-2.8-7.9-5.7-15.9-8.6-23.7-6.4-17.3-13.8-34.2-25.1-49.9-5.6-7.8-11.7-15.2-21.1-20.4C48 16 41.2 13.7 33.5 16c-6.7 2-10.7 6.2-13.7 11.1-4.8 8-4.2 16.4-1.9 24.7 4.6 16.5 12.2 32.1 20.9 47.4 9.2 16.2 19.7 31.8 32.9 46.1 6.5 7.1 12.5 14.5 19.6 21.3 4.5 4.3 9.1 8.6 13.9 13.1m51.5 38.7c4 3.5 8.6 6.5 13.3 9.4 1 .6 2.4 1.3 1.5 2.5-.9 1.4-2.3.8-3.6.4-6.8-2.1-12.5-5.4-17.5-9.6-.9-.8-1.9-1.5-3.1-2.5-.3 1.9-.1 3.3 0 4.7.5 5 .9 9.9 1.3 14.9.6 7.6 1 15.3 2.3 22.9.7 4 2.7 7.6 6.9 10.1 4.7 2.8 9.3 1.9 11.7-2.4 1.2-2.1 1.5-4.4 2.1-6.7 1.2-4.6 2.3-9.2 6.1-13 2.7-2.8 5.5-3.1 9-.8 4.7 3.1 9.6 6 15.4 7.8 6.8 2.1 13.5 2.2 19.9-1.1 4.2-2.2 6.5-5.2 6.3-9.3-.5-7.1-4.8-12.6-11.6-16.8-20.9-13-45.1-20.8-69.9-27.4-1.1-.3-1.8 0-2.6.7-2.4 2.6-2.3 4.6 1.3 7 4.1 2.7 7.6 5.8 11.1 9.3m68.3-47.7c-5.1-.3-6.6-3.4-5.3-5.9.6-1.1 1.8-1.9 3.1-2.5 4.8-2.4 9.4-5.1 12.8-8.8 4-4.3 2.6-8.1-3.5-10.1-4.7-1.5-9.3-.7-13.8.6-9.6 3-17.2 8.3-24.4 14-8.5 6.8-15.8 14.6-23.8 21.7-3.3 3-6.1 6.4-9.4 9.8 12.8.9 24.7 3.2 36.8 4.9 12.1 1.7 24.2 3.4 36.6 2.3 5.3-.4 10.3-1.6 14.6-4.4 5.9-3.8 6.1-9.1.5-13.1-1.1-.8-2.3-1.5-3.6-2.1-6.2-3.2-13-5.4-20.7-6.5M96.7 218.8c3.8 1.8 4.6 3.4 2.9 6.6-1.1 2.1-2.5 4.1-3.9 6.2-2.5 3.7-5.5 7.2-7.4 11.2-2.1 4.5-2.7 8.9.1 13.4 2.4 3.8 6.9 4.6 11 2.1 1.8-1.1 3.2-2.4 4.6-3.9 3.4-3.8 6.8-7.6 9.8-11.6 7.2-9.9 12.3-20.4 15.9-31.5.3-1 .4-1.8-.7-2.6-5-3.3-9.9-6.7-14.7-10.1-1.5-1.1-3.1-1.5-5-1.4-12.5.2-24.6 2.1-36.1 6.2-3.9 1.4-7.9 2.6-11.3 4.7-4.5 2.7-5.4 6.2-2.2 9.9 3.1 3.6 7.5 5.4 13 5.4s13.6-2 20-4.1c1.2-.4 2.4-.9 4.1-.3Z"
    fill="#f7f7f2"
    transform="translate(8 0) scale(0.95)"
  />
</svg>
